<mxfile host="app.diagrams.net" modified="2024-05-16T06:22:39.447Z" agent="Mozilla/5.0 (Windows NT 10.0; Win64; x64) AppleWebKit/537.36 (KHTML, like Gecko) Chrome/124.0.0.0 Safari/537.36" etag="nQg8IdeXSp8Vq6IRFAy7" version="24.4.2" type="device">
  <diagram name="Page-1" id="NVXa1v9dK1wyVTaZ7lZI">
    <mxGraphModel dx="1707" dy="1637" grid="1" gridSize="10" guides="1" tooltips="1" connect="1" arrows="1" fold="1" page="1" pageScale="1" pageWidth="827" pageHeight="1169" math="0" shadow="0">
      <root>
        <mxCell id="0" />
        <mxCell id="1" parent="0" />
        <mxCell id="ihEZwxISW9oKeQl_ndre-1" value="Faculty" style="rounded=0;whiteSpace=wrap;html=1;" parent="1" vertex="1">
          <mxGeometry x="732" y="167.5" width="120" height="60" as="geometry" />
        </mxCell>
        <mxCell id="ihEZwxISW9oKeQl_ndre-2" value="manage" style="rhombus;whiteSpace=wrap;html=1;" parent="1" vertex="1">
          <mxGeometry x="520" y="130" width="80" height="80" as="geometry" />
        </mxCell>
        <mxCell id="ihEZwxISW9oKeQl_ndre-3" value="" style="endArrow=none;html=1;rounded=0;exitX=0;exitY=0.5;exitDx=0;exitDy=0;entryX=1;entryY=0.5;entryDx=0;entryDy=0;" parent="1" source="ihEZwxISW9oKeQl_ndre-1" target="ihEZwxISW9oKeQl_ndre-2" edge="1">
          <mxGeometry width="50" height="50" relative="1" as="geometry">
            <mxPoint x="690" y="210" as="sourcePoint" />
            <mxPoint x="480" y="210" as="targetPoint" />
          </mxGeometry>
        </mxCell>
        <mxCell id="ihEZwxISW9oKeQl_ndre-4" value="User" style="rounded=0;whiteSpace=wrap;html=1;" parent="1" vertex="1">
          <mxGeometry x="310" y="80" width="120" height="60" as="geometry" />
        </mxCell>
        <mxCell id="ihEZwxISW9oKeQl_ndre-7" value="" style="endArrow=none;html=1;rounded=0;entryX=0;entryY=0.5;entryDx=0;entryDy=0;" parent="1" source="ihEZwxISW9oKeQl_ndre-4" target="ihEZwxISW9oKeQl_ndre-2" edge="1">
          <mxGeometry width="50" height="50" relative="1" as="geometry">
            <mxPoint x="430" y="260" as="sourcePoint" />
            <mxPoint x="480" y="210" as="targetPoint" />
          </mxGeometry>
        </mxCell>
        <mxCell id="ihEZwxISW9oKeQl_ndre-16" value="Event" style="rounded=0;whiteSpace=wrap;html=1;" parent="1" vertex="1">
          <mxGeometry x="-90" y="230" width="120" height="60" as="geometry" />
        </mxCell>
        <mxCell id="ihEZwxISW9oKeQl_ndre-17" value="supervises" style="rhombus;whiteSpace=wrap;html=1;" parent="1" vertex="1">
          <mxGeometry x="95" y="180" width="80" height="80" as="geometry" />
        </mxCell>
        <mxCell id="ihEZwxISW9oKeQl_ndre-18" value="Feedback" style="rounded=0;whiteSpace=wrap;html=1;" parent="1" vertex="1">
          <mxGeometry x="78" y="571" width="120" height="60" as="geometry" />
        </mxCell>
        <mxCell id="ihEZwxISW9oKeQl_ndre-19" value="write" style="rhombus;whiteSpace=wrap;html=1;" parent="1" vertex="1">
          <mxGeometry x="95" y="400" width="80" height="80" as="geometry" />
        </mxCell>
        <mxCell id="ihEZwxISW9oKeQl_ndre-20" value="" style="endArrow=none;html=1;rounded=0;entryX=0;entryY=0.5;entryDx=0;entryDy=0;exitX=0.5;exitY=0;exitDx=0;exitDy=0;" parent="1" source="ihEZwxISW9oKeQl_ndre-17" target="ihEZwxISW9oKeQl_ndre-4" edge="1">
          <mxGeometry width="50" height="50" relative="1" as="geometry">
            <mxPoint x="350" y="420" as="sourcePoint" />
            <mxPoint x="400" y="370" as="targetPoint" />
          </mxGeometry>
        </mxCell>
        <mxCell id="ihEZwxISW9oKeQl_ndre-21" value="" style="endArrow=none;html=1;rounded=0;entryX=0.5;entryY=1;entryDx=0;entryDy=0;" parent="1" source="ihEZwxISW9oKeQl_ndre-16" target="ihEZwxISW9oKeQl_ndre-17" edge="1">
          <mxGeometry width="50" height="50" relative="1" as="geometry">
            <mxPoint x="350" y="420" as="sourcePoint" />
            <mxPoint x="100" y="230" as="targetPoint" />
          </mxGeometry>
        </mxCell>
        <mxCell id="ihEZwxISW9oKeQl_ndre-22" value="" style="endArrow=none;html=1;rounded=0;entryX=0.081;entryY=1.022;entryDx=0;entryDy=0;entryPerimeter=0;exitX=0.5;exitY=0;exitDx=0;exitDy=0;" parent="1" source="ihEZwxISW9oKeQl_ndre-19" target="ihEZwxISW9oKeQl_ndre-4" edge="1">
          <mxGeometry width="50" height="50" relative="1" as="geometry">
            <mxPoint x="200" y="420" as="sourcePoint" />
            <mxPoint x="400" y="370" as="targetPoint" />
          </mxGeometry>
        </mxCell>
        <mxCell id="ihEZwxISW9oKeQl_ndre-23" value="" style="endArrow=none;html=1;rounded=0;entryX=0.5;entryY=1;entryDx=0;entryDy=0;exitX=0.5;exitY=0;exitDx=0;exitDy=0;entryPerimeter=0;" parent="1" source="ihEZwxISW9oKeQl_ndre-18" target="ihEZwxISW9oKeQl_ndre-19" edge="1">
          <mxGeometry width="50" height="50" relative="1" as="geometry">
            <mxPoint x="298" y="506" as="sourcePoint" />
            <mxPoint x="348" y="456" as="targetPoint" />
          </mxGeometry>
        </mxCell>
        <mxCell id="ihEZwxISW9oKeQl_ndre-27" value="Images" style="rounded=0;whiteSpace=wrap;html=1;" parent="1" vertex="1">
          <mxGeometry x="666" y="450" width="120" height="60" as="geometry" />
        </mxCell>
        <mxCell id="ihEZwxISW9oKeQl_ndre-28" value="add" style="rhombus;whiteSpace=wrap;html=1;" parent="1" vertex="1">
          <mxGeometry x="600" y="325" width="80" height="80" as="geometry" />
        </mxCell>
        <mxCell id="ihEZwxISW9oKeQl_ndre-29" value="" style="endArrow=none;html=1;rounded=0;entryX=0.5;entryY=0;entryDx=0;entryDy=0;" parent="1" source="ihEZwxISW9oKeQl_ndre-4" target="ihEZwxISW9oKeQl_ndre-28" edge="1">
          <mxGeometry width="50" height="50" relative="1" as="geometry">
            <mxPoint x="350" y="280" as="sourcePoint" />
            <mxPoint x="460" y="240" as="targetPoint" />
          </mxGeometry>
        </mxCell>
        <mxCell id="ihEZwxISW9oKeQl_ndre-30" value="" style="endArrow=none;html=1;rounded=0;entryX=0.5;entryY=1;entryDx=0;entryDy=0;exitX=0.403;exitY=-0.028;exitDx=0;exitDy=0;exitPerimeter=0;" parent="1" source="ihEZwxISW9oKeQl_ndre-27" target="ihEZwxISW9oKeQl_ndre-28" edge="1">
          <mxGeometry width="50" height="50" relative="1" as="geometry">
            <mxPoint x="651" y="540" as="sourcePoint" />
            <mxPoint x="561" y="290" as="targetPoint" />
          </mxGeometry>
        </mxCell>
        <mxCell id="ihEZwxISW9oKeQl_ndre-37" value="Notice" style="rounded=0;whiteSpace=wrap;html=1;" parent="1" vertex="1">
          <mxGeometry x="-90" y="30" width="120" height="60" as="geometry" />
        </mxCell>
        <mxCell id="ihEZwxISW9oKeQl_ndre-38" value="create" style="rhombus;whiteSpace=wrap;html=1;" parent="1" vertex="1">
          <mxGeometry x="110" y="40" width="80" height="80" as="geometry" />
        </mxCell>
        <mxCell id="ihEZwxISW9oKeQl_ndre-39" value="" style="endArrow=none;html=1;rounded=0;entryX=1;entryY=0.5;entryDx=0;entryDy=0;exitX=0;exitY=0.5;exitDx=0;exitDy=0;" parent="1" source="ihEZwxISW9oKeQl_ndre-38" target="ihEZwxISW9oKeQl_ndre-37" edge="1">
          <mxGeometry width="50" height="50" relative="1" as="geometry">
            <mxPoint x="350" y="420" as="sourcePoint" />
            <mxPoint x="400" y="370" as="targetPoint" />
          </mxGeometry>
        </mxCell>
        <mxCell id="ihEZwxISW9oKeQl_ndre-40" value="" style="endArrow=none;html=1;rounded=0;entryX=1;entryY=0.5;entryDx=0;entryDy=0;exitX=0;exitY=0.25;exitDx=0;exitDy=0;" parent="1" source="ihEZwxISW9oKeQl_ndre-4" target="ihEZwxISW9oKeQl_ndre-38" edge="1">
          <mxGeometry width="50" height="50" relative="1" as="geometry">
            <mxPoint x="350" y="420" as="sourcePoint" />
            <mxPoint x="400" y="370" as="targetPoint" />
          </mxGeometry>
        </mxCell>
        <mxCell id="ihEZwxISW9oKeQl_ndre-46" value="N" style="text;html=1;strokeColor=none;fillColor=none;align=center;verticalAlign=middle;whiteSpace=wrap;rounded=0;" parent="1" vertex="1">
          <mxGeometry x="716" y="430" width="20" height="20" as="geometry" />
        </mxCell>
        <mxCell id="ihEZwxISW9oKeQl_ndre-47" value="1" style="text;html=1;strokeColor=none;fillColor=none;align=center;verticalAlign=middle;whiteSpace=wrap;rounded=0;" parent="1" vertex="1">
          <mxGeometry x="406" y="146" width="20" height="20" as="geometry" />
        </mxCell>
        <mxCell id="ihEZwxISW9oKeQl_ndre-48" value="name" style="ellipse;whiteSpace=wrap;html=1;" parent="1" vertex="1">
          <mxGeometry x="-150" y="-70" width="90" height="50" as="geometry" />
        </mxCell>
        <mxCell id="ihEZwxISW9oKeQl_ndre-49" value="area of expertise" style="ellipse;whiteSpace=wrap;html=1;" parent="1" vertex="1">
          <mxGeometry x="852" y="87.5" width="90" height="50" as="geometry" />
        </mxCell>
        <mxCell id="ihEZwxISW9oKeQl_ndre-50" value="email" style="ellipse;whiteSpace=wrap;html=1;" parent="1" vertex="1">
          <mxGeometry x="747" y="60" width="90" height="50" as="geometry" />
        </mxCell>
        <mxCell id="ihEZwxISW9oKeQl_ndre-51" value="faculty_Id" style="ellipse;whiteSpace=wrap;html=1;" parent="1" vertex="1">
          <mxGeometry x="640" y="87.5" width="90" height="50" as="geometry" />
        </mxCell>
        <mxCell id="ihEZwxISW9oKeQl_ndre-52" value="description" style="ellipse;whiteSpace=wrap;html=1;" parent="1" vertex="1">
          <mxGeometry x="-50" y="-70" width="90" height="50" as="geometry" />
        </mxCell>
        <mxCell id="ihEZwxISW9oKeQl_ndre-54" value="notice_id" style="ellipse;whiteSpace=wrap;html=1;" parent="1" vertex="1">
          <mxGeometry x="-230" y="-30" width="90" height="50" as="geometry" />
        </mxCell>
        <mxCell id="ihEZwxISW9oKeQl_ndre-56" value="name" style="ellipse;whiteSpace=wrap;html=1;" parent="1" vertex="1">
          <mxGeometry x="-220" y="275" width="90" height="50" as="geometry" />
        </mxCell>
        <mxCell id="ihEZwxISW9oKeQl_ndre-57" value="photo" style="ellipse;whiteSpace=wrap;html=1;" parent="1" vertex="1">
          <mxGeometry x="-200" y="350" width="90" height="50" as="geometry" />
        </mxCell>
        <mxCell id="ihEZwxISW9oKeQl_ndre-65" value="description" style="ellipse;whiteSpace=wrap;html=1;" parent="1" vertex="1">
          <mxGeometry x="731" y="580" width="90" height="50" as="geometry" />
        </mxCell>
        <mxCell id="ihEZwxISW9oKeQl_ndre-66" value="1" style="text;html=1;strokeColor=none;fillColor=none;align=center;verticalAlign=middle;whiteSpace=wrap;rounded=0;" parent="1" vertex="1">
          <mxGeometry x="270" y="67.5" width="20" height="20" as="geometry" />
        </mxCell>
        <mxCell id="ihEZwxISW9oKeQl_ndre-67" value="N" style="text;html=1;strokeColor=none;fillColor=none;align=center;verticalAlign=middle;whiteSpace=wrap;rounded=0;" parent="1" vertex="1">
          <mxGeometry x="30" y="70" width="20" height="20" as="geometry" />
        </mxCell>
        <mxCell id="ihEZwxISW9oKeQl_ndre-68" value="1" style="text;html=1;strokeColor=none;fillColor=none;align=center;verticalAlign=middle;whiteSpace=wrap;rounded=0;" parent="1" vertex="1">
          <mxGeometry x="270" y="100" width="20" height="20" as="geometry" />
        </mxCell>
        <mxCell id="ihEZwxISW9oKeQl_ndre-69" value="N" style="text;html=1;strokeColor=none;fillColor=none;align=center;verticalAlign=middle;whiteSpace=wrap;rounded=0;" parent="1" vertex="1">
          <mxGeometry x="30" y="260" width="20" height="20" as="geometry" />
        </mxCell>
        <mxCell id="ihEZwxISW9oKeQl_ndre-70" value="1" style="text;html=1;strokeColor=none;fillColor=none;align=center;verticalAlign=middle;whiteSpace=wrap;rounded=0;" parent="1" vertex="1">
          <mxGeometry x="280" y="140" width="20" height="20" as="geometry" />
        </mxCell>
        <mxCell id="ihEZwxISW9oKeQl_ndre-73" value="N" style="text;html=1;strokeColor=none;fillColor=none;align=center;verticalAlign=middle;whiteSpace=wrap;rounded=0;" parent="1" vertex="1">
          <mxGeometry x="118" y="551" width="20" height="20" as="geometry" />
        </mxCell>
        <mxCell id="ihEZwxISW9oKeQl_ndre-74" value="1" style="text;html=1;strokeColor=none;fillColor=none;align=center;verticalAlign=middle;whiteSpace=wrap;rounded=0;" parent="1" vertex="1">
          <mxGeometry x="440" y="125" width="20" height="20" as="geometry" />
        </mxCell>
        <mxCell id="ihEZwxISW9oKeQl_ndre-84" value="name" style="ellipse;whiteSpace=wrap;html=1;" parent="1" vertex="1">
          <mxGeometry x="33" y="696" width="90" height="50" as="geometry" />
        </mxCell>
        <mxCell id="ihEZwxISW9oKeQl_ndre-85" value="email" style="ellipse;whiteSpace=wrap;html=1;" parent="1" vertex="1">
          <mxGeometry x="-57" y="546" width="90" height="50" as="geometry" />
        </mxCell>
        <mxCell id="ihEZwxISW9oKeQl_ndre-87" value="eventId" style="ellipse;whiteSpace=wrap;html=1;" parent="1" vertex="1">
          <mxGeometry x="-220" y="210" width="90" height="50" as="geometry" />
        </mxCell>
        <mxCell id="ihEZwxISW9oKeQl_ndre-88" value="" style="endArrow=none;html=1;rounded=0;entryX=0;entryY=0.25;entryDx=0;entryDy=0;exitX=1;exitY=0.5;exitDx=0;exitDy=0;" parent="1" target="ihEZwxISW9oKeQl_ndre-16" edge="1">
          <mxGeometry width="50" height="50" relative="1" as="geometry">
            <mxPoint x="-130" y="235" as="sourcePoint" />
            <mxPoint x="560" y="320" as="targetPoint" />
          </mxGeometry>
        </mxCell>
        <mxCell id="ihEZwxISW9oKeQl_ndre-89" value="" style="endArrow=none;html=1;rounded=0;entryX=0;entryY=0.75;entryDx=0;entryDy=0;exitX=1.007;exitY=0.3;exitDx=0;exitDy=0;exitPerimeter=0;" parent="1" source="ihEZwxISW9oKeQl_ndre-56" target="ihEZwxISW9oKeQl_ndre-16" edge="1">
          <mxGeometry width="50" height="50" relative="1" as="geometry">
            <mxPoint x="-120" y="245" as="sourcePoint" />
            <mxPoint x="-80" y="255" as="targetPoint" />
          </mxGeometry>
        </mxCell>
        <mxCell id="ihEZwxISW9oKeQl_ndre-90" value="" style="endArrow=none;html=1;rounded=0;entryX=0.25;entryY=1;entryDx=0;entryDy=0;exitX=1;exitY=0;exitDx=0;exitDy=0;" parent="1" source="ihEZwxISW9oKeQl_ndre-57" target="ihEZwxISW9oKeQl_ndre-16" edge="1">
          <mxGeometry width="50" height="50" relative="1" as="geometry">
            <mxPoint x="-110" y="255" as="sourcePoint" />
            <mxPoint x="-70" y="265" as="targetPoint" />
          </mxGeometry>
        </mxCell>
        <mxCell id="ihEZwxISW9oKeQl_ndre-92" value="" style="endArrow=none;html=1;rounded=0;entryX=1;entryY=1;entryDx=0;entryDy=0;exitX=0;exitY=0.25;exitDx=0;exitDy=0;" parent="1" source="ihEZwxISW9oKeQl_ndre-37" target="ihEZwxISW9oKeQl_ndre-54" edge="1">
          <mxGeometry width="50" height="50" relative="1" as="geometry">
            <mxPoint x="510" y="120" as="sourcePoint" />
            <mxPoint x="560" y="70" as="targetPoint" />
          </mxGeometry>
        </mxCell>
        <mxCell id="ihEZwxISW9oKeQl_ndre-93" value="" style="endArrow=none;html=1;rounded=0;entryX=0.5;entryY=1;entryDx=0;entryDy=0;" parent="1" target="ihEZwxISW9oKeQl_ndre-48" edge="1">
          <mxGeometry width="50" height="50" relative="1" as="geometry">
            <mxPoint x="-80" y="30" as="sourcePoint" />
            <mxPoint x="-143" y="23" as="targetPoint" />
          </mxGeometry>
        </mxCell>
        <mxCell id="ihEZwxISW9oKeQl_ndre-94" value="" style="endArrow=none;html=1;rounded=0;entryX=0.5;entryY=1;entryDx=0;entryDy=0;exitX=0.75;exitY=0;exitDx=0;exitDy=0;" parent="1" source="ihEZwxISW9oKeQl_ndre-37" target="ihEZwxISW9oKeQl_ndre-52" edge="1">
          <mxGeometry width="50" height="50" relative="1" as="geometry">
            <mxPoint x="-70" y="65" as="sourcePoint" />
            <mxPoint x="-133" y="33" as="targetPoint" />
          </mxGeometry>
        </mxCell>
        <mxCell id="ihEZwxISW9oKeQl_ndre-95" value="name" style="ellipse;whiteSpace=wrap;html=1;" parent="1" vertex="1">
          <mxGeometry x="826" y="530" width="90" height="50" as="geometry" />
        </mxCell>
        <mxCell id="ihEZwxISW9oKeQl_ndre-96" value="imgId" style="ellipse;whiteSpace=wrap;html=1;" parent="1" vertex="1">
          <mxGeometry x="826" y="440" width="90" height="50" as="geometry" />
        </mxCell>
        <mxCell id="ihEZwxISW9oKeQl_ndre-97" value="" style="endArrow=none;html=1;rounded=0;entryX=0.5;entryY=1;entryDx=0;entryDy=0;exitX=0.183;exitY=0.006;exitDx=0;exitDy=0;exitPerimeter=0;" parent="1" source="ihEZwxISW9oKeQl_ndre-4" target="ihEZwxISW9oKeQl_ndre-59" edge="1">
          <mxGeometry width="50" height="50" relative="1" as="geometry">
            <mxPoint x="10" y="40" as="sourcePoint" />
            <mxPoint x="21" y="-8" as="targetPoint" />
          </mxGeometry>
        </mxCell>
        <mxCell id="ihEZwxISW9oKeQl_ndre-98" value="" style="endArrow=none;html=1;rounded=0;entryX=0.5;entryY=1;entryDx=0;entryDy=0;exitX=0;exitY=0;exitDx=0;exitDy=0;" parent="1" source="ihEZwxISW9oKeQl_ndre-1" target="ihEZwxISW9oKeQl_ndre-51" edge="1">
          <mxGeometry width="50" height="50" relative="1" as="geometry">
            <mxPoint x="380" y="269.5" as="sourcePoint" />
            <mxPoint x="345" y="207.5" as="targetPoint" />
          </mxGeometry>
        </mxCell>
        <mxCell id="ihEZwxISW9oKeQl_ndre-100" value="" style="endArrow=none;html=1;rounded=0;entryX=0.5;entryY=1;entryDx=0;entryDy=0;" parent="1" source="ihEZwxISW9oKeQl_ndre-1" target="ihEZwxISW9oKeQl_ndre-50" edge="1">
          <mxGeometry width="50" height="50" relative="1" as="geometry">
            <mxPoint x="640" y="47.5" as="sourcePoint" />
            <mxPoint x="775" y="97.5" as="targetPoint" />
          </mxGeometry>
        </mxCell>
        <mxCell id="ihEZwxISW9oKeQl_ndre-101" value="" style="endArrow=none;html=1;rounded=0;entryX=0;entryY=1;entryDx=0;entryDy=0;exitX=0.75;exitY=0;exitDx=0;exitDy=0;" parent="1" source="ihEZwxISW9oKeQl_ndre-1" target="ihEZwxISW9oKeQl_ndre-49" edge="1">
          <mxGeometry width="50" height="50" relative="1" as="geometry">
            <mxPoint x="695" y="47.5" as="sourcePoint" />
            <mxPoint x="688" y="0.5" as="targetPoint" />
          </mxGeometry>
        </mxCell>
        <mxCell id="ihEZwxISW9oKeQl_ndre-103" value="" style="endArrow=none;html=1;rounded=0;entryX=0.5;entryY=0;entryDx=0;entryDy=0;exitX=0.5;exitY=1;exitDx=0;exitDy=0;" parent="1" source="ihEZwxISW9oKeQl_ndre-27" target="ihEZwxISW9oKeQl_ndre-65" edge="1">
          <mxGeometry width="50" height="50" relative="1" as="geometry">
            <mxPoint x="741" y="520" as="sourcePoint" />
            <mxPoint x="716" y="610" as="targetPoint" />
          </mxGeometry>
        </mxCell>
        <mxCell id="ihEZwxISW9oKeQl_ndre-104" value="" style="endArrow=none;html=1;rounded=0;entryX=0;entryY=0;entryDx=0;entryDy=0;exitX=1;exitY=1;exitDx=0;exitDy=0;" parent="1" source="ihEZwxISW9oKeQl_ndre-27" target="ihEZwxISW9oKeQl_ndre-95" edge="1">
          <mxGeometry width="50" height="50" relative="1" as="geometry">
            <mxPoint x="766" y="520" as="sourcePoint" />
            <mxPoint x="770" y="483" as="targetPoint" />
          </mxGeometry>
        </mxCell>
        <mxCell id="ihEZwxISW9oKeQl_ndre-105" value="" style="endArrow=none;html=1;rounded=0;entryX=0;entryY=0.5;entryDx=0;entryDy=0;exitX=1;exitY=0.5;exitDx=0;exitDy=0;" parent="1" source="ihEZwxISW9oKeQl_ndre-27" target="ihEZwxISW9oKeQl_ndre-96" edge="1">
          <mxGeometry width="50" height="50" relative="1" as="geometry">
            <mxPoint x="796" y="520" as="sourcePoint" />
            <mxPoint x="844" y="508" as="targetPoint" />
          </mxGeometry>
        </mxCell>
        <mxCell id="ihEZwxISW9oKeQl_ndre-106" value="" style="endArrow=none;html=1;rounded=0;exitX=0.5;exitY=0;exitDx=0;exitDy=0;entryX=0.25;entryY=1;entryDx=0;entryDy=0;" parent="1" source="ihEZwxISW9oKeQl_ndre-84" target="ihEZwxISW9oKeQl_ndre-18" edge="1">
          <mxGeometry width="50" height="50" relative="1" as="geometry">
            <mxPoint x="658" y="606" as="sourcePoint" />
            <mxPoint x="98" y="626" as="targetPoint" />
          </mxGeometry>
        </mxCell>
        <mxCell id="ihEZwxISW9oKeQl_ndre-107" value="" style="endArrow=none;html=1;rounded=0;entryX=0;entryY=0.25;entryDx=0;entryDy=0;exitX=1;exitY=0.5;exitDx=0;exitDy=0;" parent="1" source="ihEZwxISW9oKeQl_ndre-85" target="ihEZwxISW9oKeQl_ndre-18" edge="1">
          <mxGeometry width="50" height="50" relative="1" as="geometry">
            <mxPoint x="-12" y="771" as="sourcePoint" />
            <mxPoint x="68" y="811" as="targetPoint" />
          </mxGeometry>
        </mxCell>
        <mxCell id="ihEZwxISW9oKeQl_ndre-114" value="feedbackId" style="ellipse;whiteSpace=wrap;html=1;" parent="1" vertex="1">
          <mxGeometry x="-72" y="631" width="90" height="50" as="geometry" />
        </mxCell>
        <mxCell id="ihEZwxISW9oKeQl_ndre-115" value="" style="endArrow=none;html=1;rounded=0;entryX=0;entryY=1;entryDx=0;entryDy=0;exitX=1;exitY=0;exitDx=0;exitDy=0;" parent="1" source="ihEZwxISW9oKeQl_ndre-114" target="ihEZwxISW9oKeQl_ndre-18" edge="1">
          <mxGeometry width="50" height="50" relative="1" as="geometry">
            <mxPoint x="-22" y="856" as="sourcePoint" />
            <mxPoint x="68" y="841" as="targetPoint" />
          </mxGeometry>
        </mxCell>
        <mxCell id="ihEZwxISW9oKeQl_ndre-116" value="" style="endArrow=none;html=1;rounded=0;" parent="1" edge="1">
          <mxGeometry width="50" height="50" relative="1" as="geometry">
            <mxPoint x="-55" y="663" as="sourcePoint" />
            <mxPoint x="5" y="663" as="targetPoint" />
          </mxGeometry>
        </mxCell>
        <mxCell id="ihEZwxISW9oKeQl_ndre-117" value="" style="endArrow=none;html=1;rounded=0;" parent="1" edge="1">
          <mxGeometry width="50" height="50" relative="1" as="geometry">
            <mxPoint x="-195" y="242.99999999999994" as="sourcePoint" />
            <mxPoint x="-155" y="241.66999999999996" as="targetPoint" />
          </mxGeometry>
        </mxCell>
        <mxCell id="ihEZwxISW9oKeQl_ndre-118" value="" style="endArrow=none;html=1;rounded=0;" parent="1" edge="1">
          <mxGeometry width="50" height="50" relative="1" as="geometry">
            <mxPoint x="-210" y="4" as="sourcePoint" />
            <mxPoint x="-160" y="4" as="targetPoint" />
          </mxGeometry>
        </mxCell>
        <mxCell id="ihEZwxISW9oKeQl_ndre-119" value="" style="endArrow=none;html=1;rounded=0;" parent="1" edge="1">
          <mxGeometry width="50" height="50" relative="1" as="geometry">
            <mxPoint x="660" y="123.32999999999998" as="sourcePoint" />
            <mxPoint x="710" y="122" as="targetPoint" />
          </mxGeometry>
        </mxCell>
        <mxCell id="ihEZwxISW9oKeQl_ndre-120" value="" style="endArrow=none;html=1;rounded=0;" parent="1" edge="1">
          <mxGeometry width="50" height="50" relative="1" as="geometry">
            <mxPoint x="850" y="475" as="sourcePoint" />
            <mxPoint x="889" y="474.6700000000001" as="targetPoint" />
          </mxGeometry>
        </mxCell>
        <mxCell id="B3sH4bLmJmFgYO-YijyI-1" value="" style="endArrow=none;html=1;rounded=0;" parent="1" source="ihEZwxISW9oKeQl_ndre-59" edge="1">
          <mxGeometry width="50" height="50" relative="1" as="geometry">
            <mxPoint x="260" y="-15.670000000000002" as="sourcePoint" />
            <mxPoint x="310" y="-16.999999999999986" as="targetPoint" />
          </mxGeometry>
        </mxCell>
        <mxCell id="qPAzCiUHYxzAPgRPFxZE-1" value="photo" style="ellipse;whiteSpace=wrap;html=1;" parent="1" vertex="1">
          <mxGeometry x="-220" y="55" width="90" height="50" as="geometry" />
        </mxCell>
        <mxCell id="qPAzCiUHYxzAPgRPFxZE-2" value="category" style="ellipse;whiteSpace=wrap;html=1;" parent="1" vertex="1">
          <mxGeometry x="-150" y="120" width="90" height="50" as="geometry" />
        </mxCell>
        <mxCell id="qPAzCiUHYxzAPgRPFxZE-3" value="description" style="ellipse;whiteSpace=wrap;html=1;" parent="1" vertex="1">
          <mxGeometry x="-90" y="350" width="90" height="50" as="geometry" />
        </mxCell>
        <mxCell id="qPAzCiUHYxzAPgRPFxZE-4" value="date" style="ellipse;whiteSpace=wrap;html=1;" parent="1" vertex="1">
          <mxGeometry y="325" width="90" height="50" as="geometry" />
        </mxCell>
        <mxCell id="qPAzCiUHYxzAPgRPFxZE-5" value="subject" style="ellipse;whiteSpace=wrap;html=1;" parent="1" vertex="1">
          <mxGeometry x="168" y="671" width="90" height="50" as="geometry" />
        </mxCell>
        <mxCell id="qPAzCiUHYxzAPgRPFxZE-6" value="message" style="ellipse;whiteSpace=wrap;html=1;" parent="1" vertex="1">
          <mxGeometry x="238" y="596" width="90" height="50" as="geometry" />
        </mxCell>
        <mxCell id="qPAzCiUHYxzAPgRPFxZE-9" value="category" style="ellipse;whiteSpace=wrap;html=1;" parent="1" vertex="1">
          <mxGeometry x="616" y="570" width="90" height="50" as="geometry" />
        </mxCell>
        <mxCell id="qPAzCiUHYxzAPgRPFxZE-11" value="photo" style="ellipse;whiteSpace=wrap;html=1;" parent="1" vertex="1">
          <mxGeometry x="561" y="510" width="90" height="50" as="geometry" />
        </mxCell>
        <mxCell id="qPAzCiUHYxzAPgRPFxZE-12" value="name" style="ellipse;whiteSpace=wrap;html=1;" parent="1" vertex="1">
          <mxGeometry x="705" y="270" width="90" height="50" as="geometry" />
        </mxCell>
        <mxCell id="qPAzCiUHYxzAPgRPFxZE-13" value="photo" style="ellipse;whiteSpace=wrap;html=1;" parent="1" vertex="1">
          <mxGeometry x="905" y="145" width="90" height="50" as="geometry" />
        </mxCell>
        <mxCell id="qPAzCiUHYxzAPgRPFxZE-14" value="email" style="ellipse;whiteSpace=wrap;html=1;" parent="1" vertex="1">
          <mxGeometry x="335" y="-60" width="90" height="50" as="geometry" />
        </mxCell>
        <mxCell id="qPAzCiUHYxzAPgRPFxZE-15" value="password" style="ellipse;whiteSpace=wrap;html=1;" parent="1" vertex="1">
          <mxGeometry x="425" y="-40" width="90" height="50" as="geometry" />
        </mxCell>
        <mxCell id="qPAzCiUHYxzAPgRPFxZE-16" value="designation" style="ellipse;whiteSpace=wrap;html=1;" parent="1" vertex="1">
          <mxGeometry x="895" y="227.5" width="90" height="50" as="geometry" />
        </mxCell>
        <mxCell id="qPAzCiUHYxzAPgRPFxZE-17" value="qualfication" style="ellipse;whiteSpace=wrap;html=1;" parent="1" vertex="1">
          <mxGeometry x="805" y="285" width="90" height="50" as="geometry" />
        </mxCell>
        <mxCell id="qPAzCiUHYxzAPgRPFxZE-19" value="N" style="text;html=1;strokeColor=none;fillColor=none;align=center;verticalAlign=middle;whiteSpace=wrap;rounded=0;" parent="1" vertex="1">
          <mxGeometry x="705" y="195" width="20" height="20" as="geometry" />
        </mxCell>
        <mxCell id="A9LlTcUaualxICJqzIdU-1" value="" style="endArrow=none;html=1;rounded=0;entryX=1;entryY=0.5;entryDx=0;entryDy=0;exitX=0;exitY=0.5;exitDx=0;exitDy=0;" parent="1" source="ihEZwxISW9oKeQl_ndre-37" target="qPAzCiUHYxzAPgRPFxZE-1" edge="1">
          <mxGeometry width="50" height="50" relative="1" as="geometry">
            <mxPoint x="-70" y="40" as="sourcePoint" />
            <mxPoint x="-95" y="-10" as="targetPoint" />
          </mxGeometry>
        </mxCell>
        <mxCell id="A9LlTcUaualxICJqzIdU-2" value="" style="endArrow=none;html=1;rounded=0;entryX=0.711;entryY=0.04;entryDx=0;entryDy=0;entryPerimeter=0;" parent="1" target="qPAzCiUHYxzAPgRPFxZE-2" edge="1">
          <mxGeometry width="50" height="50" relative="1" as="geometry">
            <mxPoint x="-70" y="90" as="sourcePoint" />
            <mxPoint x="-85" as="targetPoint" />
          </mxGeometry>
        </mxCell>
        <mxCell id="A9LlTcUaualxICJqzIdU-3" value="" style="endArrow=none;html=1;rounded=0;entryX=0.5;entryY=0;entryDx=0;entryDy=0;" parent="1" source="ihEZwxISW9oKeQl_ndre-16" target="qPAzCiUHYxzAPgRPFxZE-3" edge="1">
          <mxGeometry width="50" height="50" relative="1" as="geometry">
            <mxPoint x="-45" y="298" as="sourcePoint" />
            <mxPoint x="-75" y="10" as="targetPoint" />
          </mxGeometry>
        </mxCell>
        <mxCell id="A9LlTcUaualxICJqzIdU-4" value="" style="endArrow=none;html=1;rounded=0;exitX=0.894;exitY=1.039;exitDx=0;exitDy=0;exitPerimeter=0;" parent="1" source="ihEZwxISW9oKeQl_ndre-16" target="qPAzCiUHYxzAPgRPFxZE-4" edge="1">
          <mxGeometry width="50" height="50" relative="1" as="geometry">
            <mxPoint x="-35" y="308" as="sourcePoint" />
            <mxPoint x="-35" y="360" as="targetPoint" />
          </mxGeometry>
        </mxCell>
        <mxCell id="A9LlTcUaualxICJqzIdU-5" value="" style="endArrow=none;html=1;rounded=0;entryX=0.839;entryY=1.05;entryDx=0;entryDy=0;exitX=0.348;exitY=0.02;exitDx=0;exitDy=0;entryPerimeter=0;exitPerimeter=0;" parent="1" source="qPAzCiUHYxzAPgRPFxZE-5" target="ihEZwxISW9oKeQl_ndre-18" edge="1">
          <mxGeometry width="50" height="50" relative="1" as="geometry">
            <mxPoint x="73" y="906" as="sourcePoint" />
            <mxPoint x="81" y="862" as="targetPoint" />
          </mxGeometry>
        </mxCell>
        <mxCell id="A9LlTcUaualxICJqzIdU-6" value="" style="endArrow=none;html=1;rounded=0;entryX=1;entryY=0.5;entryDx=0;entryDy=0;exitX=0;exitY=0;exitDx=0;exitDy=0;" parent="1" source="qPAzCiUHYxzAPgRPFxZE-6" target="ihEZwxISW9oKeQl_ndre-18" edge="1">
          <mxGeometry width="50" height="50" relative="1" as="geometry">
            <mxPoint x="219" y="907" as="sourcePoint" />
            <mxPoint x="169" y="859" as="targetPoint" />
          </mxGeometry>
        </mxCell>
        <mxCell id="A9LlTcUaualxICJqzIdU-10" value="" style="endArrow=none;html=1;rounded=0;entryX=0.667;entryY=0.06;entryDx=0;entryDy=0;exitX=0.25;exitY=1;exitDx=0;exitDy=0;entryPerimeter=0;" parent="1" source="ihEZwxISW9oKeQl_ndre-27" target="qPAzCiUHYxzAPgRPFxZE-9" edge="1">
          <mxGeometry width="50" height="50" relative="1" as="geometry">
            <mxPoint x="759" y="524" as="sourcePoint" />
            <mxPoint x="786" y="590" as="targetPoint" />
          </mxGeometry>
        </mxCell>
        <mxCell id="A9LlTcUaualxICJqzIdU-11" value="" style="endArrow=none;html=1;rounded=0;entryX=1;entryY=0;entryDx=0;entryDy=0;exitX=0;exitY=0.75;exitDx=0;exitDy=0;" parent="1" source="ihEZwxISW9oKeQl_ndre-27" target="qPAzCiUHYxzAPgRPFxZE-11" edge="1">
          <mxGeometry width="50" height="50" relative="1" as="geometry">
            <mxPoint x="716" y="520" as="sourcePoint" />
            <mxPoint x="686" y="583" as="targetPoint" />
          </mxGeometry>
        </mxCell>
        <mxCell id="A9LlTcUaualxICJqzIdU-17" value="" style="endArrow=none;html=1;rounded=0;entryX=0;entryY=0.5;entryDx=0;entryDy=0;exitX=1;exitY=0.5;exitDx=0;exitDy=0;" parent="1" source="ihEZwxISW9oKeQl_ndre-1" target="qPAzCiUHYxzAPgRPFxZE-13" edge="1">
          <mxGeometry width="50" height="50" relative="1" as="geometry">
            <mxPoint x="802" y="178" as="sourcePoint" />
            <mxPoint x="802" y="120" as="targetPoint" />
          </mxGeometry>
        </mxCell>
        <mxCell id="A9LlTcUaualxICJqzIdU-18" value="" style="endArrow=none;html=1;rounded=0;entryX=0;entryY=0.5;entryDx=0;entryDy=0;exitX=1;exitY=0.75;exitDx=0;exitDy=0;" parent="1" source="ihEZwxISW9oKeQl_ndre-1" target="qPAzCiUHYxzAPgRPFxZE-16" edge="1">
          <mxGeometry width="50" height="50" relative="1" as="geometry">
            <mxPoint x="862" y="208" as="sourcePoint" />
            <mxPoint x="915" y="180" as="targetPoint" />
          </mxGeometry>
        </mxCell>
        <mxCell id="A9LlTcUaualxICJqzIdU-19" value="" style="endArrow=none;html=1;rounded=0;entryX=0.5;entryY=0;entryDx=0;entryDy=0;exitX=0.75;exitY=1;exitDx=0;exitDy=0;" parent="1" source="ihEZwxISW9oKeQl_ndre-1" target="qPAzCiUHYxzAPgRPFxZE-17" edge="1">
          <mxGeometry width="50" height="50" relative="1" as="geometry">
            <mxPoint x="862" y="223" as="sourcePoint" />
            <mxPoint x="905" y="263" as="targetPoint" />
          </mxGeometry>
        </mxCell>
        <mxCell id="A9LlTcUaualxICJqzIdU-20" value="" style="endArrow=none;html=1;rounded=0;entryX=0.5;entryY=0;entryDx=0;entryDy=0;exitX=0.186;exitY=1.031;exitDx=0;exitDy=0;exitPerimeter=0;" parent="1" source="ihEZwxISW9oKeQl_ndre-1" target="qPAzCiUHYxzAPgRPFxZE-12" edge="1">
          <mxGeometry width="50" height="50" relative="1" as="geometry">
            <mxPoint x="872" y="233" as="sourcePoint" />
            <mxPoint x="915" y="273" as="targetPoint" />
          </mxGeometry>
        </mxCell>
        <mxCell id="A9LlTcUaualxICJqzIdU-21" value="" style="endArrow=none;html=1;rounded=0;entryX=0.304;entryY=0.993;entryDx=0;entryDy=0;exitX=0.5;exitY=0;exitDx=0;exitDy=0;entryPerimeter=0;" parent="1" source="ihEZwxISW9oKeQl_ndre-4" target="qPAzCiUHYxzAPgRPFxZE-14" edge="1">
          <mxGeometry width="50" height="50" relative="1" as="geometry">
            <mxPoint x="342" y="90" as="sourcePoint" />
            <mxPoint x="285" y="10" as="targetPoint" />
          </mxGeometry>
        </mxCell>
        <mxCell id="A9LlTcUaualxICJqzIdU-22" value="" style="endArrow=none;html=1;rounded=0;entryX=0;entryY=1;entryDx=0;entryDy=0;exitX=0.75;exitY=0;exitDx=0;exitDy=0;" parent="1" source="ihEZwxISW9oKeQl_ndre-4" target="qPAzCiUHYxzAPgRPFxZE-15" edge="1">
          <mxGeometry width="50" height="50" relative="1" as="geometry">
            <mxPoint x="380" y="90" as="sourcePoint" />
            <mxPoint x="387" as="targetPoint" />
          </mxGeometry>
        </mxCell>
        <mxCell id="jneWp8-2OG6zo0R_oMlV-1" value="isAdmin" style="ellipse;whiteSpace=wrap;html=1;" parent="1" vertex="1">
          <mxGeometry x="485" y="5" width="90" height="50" as="geometry" />
        </mxCell>
        <mxCell id="jneWp8-2OG6zo0R_oMlV-2" value="" style="endArrow=none;html=1;rounded=0;entryX=0.022;entryY=0.64;entryDx=0;entryDy=0;exitX=1;exitY=0;exitDx=0;exitDy=0;entryPerimeter=0;" parent="1" source="ihEZwxISW9oKeQl_ndre-4" target="jneWp8-2OG6zo0R_oMlV-1" edge="1">
          <mxGeometry width="50" height="50" relative="1" as="geometry">
            <mxPoint x="410" y="90" as="sourcePoint" />
            <mxPoint x="473" y="23" as="targetPoint" />
          </mxGeometry>
        </mxCell>
        <mxCell id="jneWp8-2OG6zo0R_oMlV-3" value="" style="endArrow=none;html=1;rounded=0;" parent="1" target="ihEZwxISW9oKeQl_ndre-59" edge="1">
          <mxGeometry width="50" height="50" relative="1" as="geometry">
            <mxPoint x="260" y="-15.670000000000002" as="sourcePoint" />
            <mxPoint x="310" y="-16.999999999999986" as="targetPoint" />
          </mxGeometry>
        </mxCell>
        <mxCell id="ihEZwxISW9oKeQl_ndre-59" value="user_id" style="ellipse;whiteSpace=wrap;html=1;" parent="1" vertex="1">
          <mxGeometry x="235" y="-50" width="90" height="50" as="geometry" />
        </mxCell>
        <mxCell id="csv6okAaDuMCQGr2h_wE-1" value="" style="endArrow=none;html=1;rounded=0;exitX=0;exitY=1;exitDx=0;exitDy=0;" parent="1" edge="1">
          <mxGeometry width="50" height="50" relative="1" as="geometry">
            <mxPoint x="255.18019484660545" y="-15.32233047033651" as="sourcePoint" />
            <mxPoint x="305" y="-17" as="targetPoint" />
          </mxGeometry>
        </mxCell>
        <mxCell id="csv6okAaDuMCQGr2h_wE-3" value="upload" style="rhombus;whiteSpace=wrap;html=1;" parent="1" vertex="1">
          <mxGeometry x="334" y="210" width="80" height="80" as="geometry" />
        </mxCell>
        <mxCell id="csv6okAaDuMCQGr2h_wE-4" value="" style="endArrow=none;html=1;rounded=0;entryX=0.5;entryY=1;entryDx=0;entryDy=0;exitX=0.5;exitY=0;exitDx=0;exitDy=0;" parent="1" source="csv6okAaDuMCQGr2h_wE-3" target="ihEZwxISW9oKeQl_ndre-4" edge="1">
          <mxGeometry width="50" height="50" relative="1" as="geometry">
            <mxPoint x="370" y="250" as="sourcePoint" />
            <mxPoint x="410" y="390" as="targetPoint" />
          </mxGeometry>
        </mxCell>
        <mxCell id="csv6okAaDuMCQGr2h_wE-5" value="1" style="text;html=1;strokeColor=none;fillColor=none;align=center;verticalAlign=middle;whiteSpace=wrap;rounded=0;" parent="1" vertex="1">
          <mxGeometry x="354" y="144" width="20" height="20" as="geometry" />
        </mxCell>
        <mxCell id="csv6okAaDuMCQGr2h_wE-20" value="Course" style="rounded=0;whiteSpace=wrap;html=1;" parent="1" vertex="1">
          <mxGeometry x="314" y="350" width="120" height="60" as="geometry" />
        </mxCell>
        <mxCell id="csv6okAaDuMCQGr2h_wE-21" value="" style="endArrow=none;html=1;rounded=0;entryX=0.5;entryY=1;entryDx=0;entryDy=0;exitX=0.5;exitY=0;exitDx=0;exitDy=0;" parent="1" source="csv6okAaDuMCQGr2h_wE-20" target="csv6okAaDuMCQGr2h_wE-3" edge="1">
          <mxGeometry width="50" height="50" relative="1" as="geometry">
            <mxPoint x="540" y="390" as="sourcePoint" />
            <mxPoint x="390" y="340" as="targetPoint" />
          </mxGeometry>
        </mxCell>
        <mxCell id="csv6okAaDuMCQGr2h_wE-22" value="N" style="text;html=1;strokeColor=none;fillColor=none;align=center;verticalAlign=middle;whiteSpace=wrap;rounded=0;" parent="1" vertex="1">
          <mxGeometry x="354" y="333" width="20" height="20" as="geometry" />
        </mxCell>
        <mxCell id="csv6okAaDuMCQGr2h_wE-23" value="subName" style="ellipse;whiteSpace=wrap;html=1;" parent="1" vertex="1">
          <mxGeometry x="198" y="340" width="90" height="50" as="geometry" />
        </mxCell>
        <mxCell id="csv6okAaDuMCQGr2h_wE-24" value="" style="endArrow=none;html=1;rounded=0;entryX=0.25;entryY=1;entryDx=0;entryDy=0;exitX=0.5;exitY=0;exitDx=0;exitDy=0;" parent="1" source="csv6okAaDuMCQGr2h_wE-34" target="csv6okAaDuMCQGr2h_wE-20" edge="1">
          <mxGeometry width="50" height="50" relative="1" as="geometry">
            <mxPoint x="340" y="490" as="sourcePoint" />
            <mxPoint x="340" y="510" as="targetPoint" />
          </mxGeometry>
        </mxCell>
        <mxCell id="csv6okAaDuMCQGr2h_wE-25" value="" style="endArrow=none;html=1;rounded=0;entryX=0;entryY=0.25;entryDx=0;entryDy=0;exitX=1;exitY=0.5;exitDx=0;exitDy=0;" parent="1" source="csv6okAaDuMCQGr2h_wE-23" target="csv6okAaDuMCQGr2h_wE-20" edge="1">
          <mxGeometry width="50" height="50" relative="1" as="geometry">
            <mxPoint x="230" y="655" as="sourcePoint" />
            <mxPoint x="310" y="695" as="targetPoint" />
          </mxGeometry>
        </mxCell>
        <mxCell id="csv6okAaDuMCQGr2h_wE-26" value="courseId" style="ellipse;whiteSpace=wrap;html=1;" parent="1" vertex="1">
          <mxGeometry x="210" y="420" width="90" height="50" as="geometry" />
        </mxCell>
        <mxCell id="csv6okAaDuMCQGr2h_wE-27" value="" style="endArrow=none;html=1;rounded=0;entryX=0;entryY=1;entryDx=0;entryDy=0;exitX=1;exitY=0;exitDx=0;exitDy=0;" parent="1" source="csv6okAaDuMCQGr2h_wE-26" target="csv6okAaDuMCQGr2h_wE-20" edge="1">
          <mxGeometry width="50" height="50" relative="1" as="geometry">
            <mxPoint x="220" y="740" as="sourcePoint" />
            <mxPoint x="310" y="725" as="targetPoint" />
          </mxGeometry>
        </mxCell>
        <mxCell id="csv6okAaDuMCQGr2h_wE-28" value="" style="endArrow=none;html=1;rounded=0;" parent="1" edge="1">
          <mxGeometry width="50" height="50" relative="1" as="geometry">
            <mxPoint x="225" y="453" as="sourcePoint" />
            <mxPoint x="285" y="453" as="targetPoint" />
          </mxGeometry>
        </mxCell>
        <mxCell id="csv6okAaDuMCQGr2h_wE-29" value="course material" style="ellipse;whiteSpace=wrap;html=1;" parent="1" vertex="1">
          <mxGeometry x="378" y="450" width="102" height="50" as="geometry" />
        </mxCell>
        <mxCell id="csv6okAaDuMCQGr2h_wE-30" value="internal paper" style="ellipse;whiteSpace=wrap;html=1;" parent="1" vertex="1">
          <mxGeometry x="471" y="405" width="90" height="50" as="geometry" />
        </mxCell>
        <mxCell id="csv6okAaDuMCQGr2h_wE-31" value="" style="endArrow=none;html=1;rounded=0;exitX=0.348;exitY=0.02;exitDx=0;exitDy=0;exitPerimeter=0;" parent="1" source="csv6okAaDuMCQGr2h_wE-29" edge="1">
          <mxGeometry width="50" height="50" relative="1" as="geometry">
            <mxPoint x="315" y="790" as="sourcePoint" />
            <mxPoint x="413" y="410" as="targetPoint" />
          </mxGeometry>
        </mxCell>
        <mxCell id="csv6okAaDuMCQGr2h_wE-32" value="" style="endArrow=none;html=1;rounded=0;entryX=1;entryY=0.5;entryDx=0;entryDy=0;exitX=0;exitY=0;exitDx=0;exitDy=0;" parent="1" source="csv6okAaDuMCQGr2h_wE-30" target="csv6okAaDuMCQGr2h_wE-20" edge="1">
          <mxGeometry width="50" height="50" relative="1" as="geometry">
            <mxPoint x="461" y="791" as="sourcePoint" />
            <mxPoint x="411" y="743" as="targetPoint" />
          </mxGeometry>
        </mxCell>
        <mxCell id="csv6okAaDuMCQGr2h_wE-35" value="" style="endArrow=none;html=1;rounded=0;entryX=0.25;entryY=1;entryDx=0;entryDy=0;" parent="1" target="csv6okAaDuMCQGr2h_wE-34" edge="1">
          <mxGeometry width="50" height="50" relative="1" as="geometry">
            <mxPoint x="340" y="490" as="sourcePoint" />
            <mxPoint x="344" y="410" as="targetPoint" />
          </mxGeometry>
        </mxCell>
        <mxCell id="csv6okAaDuMCQGr2h_wE-34" value="syllabus" style="ellipse;whiteSpace=wrap;html=1;" parent="1" vertex="1">
          <mxGeometry x="288" y="480" width="90" height="50" as="geometry" />
        </mxCell>
        <mxCell id="csv6okAaDuMCQGr2h_wE-36" value="external paper" style="ellipse;whiteSpace=wrap;html=1;" parent="1" vertex="1">
          <mxGeometry x="480" y="335" width="90" height="50" as="geometry" />
        </mxCell>
        <mxCell id="csv6okAaDuMCQGr2h_wE-37" value="" style="endArrow=none;html=1;rounded=0;exitX=0;exitY=0;exitDx=0;exitDy=0;" parent="1" source="csv6okAaDuMCQGr2h_wE-36" edge="1">
          <mxGeometry width="50" height="50" relative="1" as="geometry">
            <mxPoint x="457" y="736" as="sourcePoint" />
            <mxPoint x="430" y="350" as="targetPoint" />
          </mxGeometry>
        </mxCell>
      </root>
    </mxGraphModel>
  </diagram>
</mxfile>
